# TallBox
v -0.720444 0.473882 1.2
v -0.720444 0.473882 0
v -0.146892 0.673479 0
v -0.146892 0.673479 1.2
v -0.523986 -0.0906493 0
v -0.523986 -0.0906492 1.2
v 0.0495656 0.108948 1.2
v 0.0495656 0.108948 0
v -0.523986 -0.0906492 1.2
v -0.720444 0.473882 1.2
v -0.146892 0.673479 1.2
v 0.0495656 0.108948 1.2
v 0.0495656 0.108948 0
v -0.146892 0.673479 0
v -0.720444 0.473882 0
v -0.523986 -0.0906493 0
v -0.523986 -0.0906493 0
v -0.720444 0.473882 0
v -0.720444 0.473882 1.2
v -0.523986 -0.0906492 1.2
v 0.0495656 0.108948 1.2
v -0.146892 0.673479 1.2
v -0.146892 0.673479 0
v 0.0495656 0.108948 0
vt 0 0
vt 1 0
vt 1 1
vt 0 1
vt 0 0
vt 1 0
vt 1 1
vt 0 1
vt 0 0
vt 1 0
vt 1 1
vt 0 1
vt 0 0
vt 1 0
vt 1 1
vt 0 1
vt 0 0
vt 1 0
vt 1 1
vt 0 1
vt 0 0
vt 1 0
vt 1 1
vt 0 1
vn -0.328669 0.944445 -4.1283e-8
vn -0.328669 0.944445 -4.1283e-8
vn -0.328669 0.944445 -4.1283e-8
vn -0.328669 0.944445 -4.1283e-8
vn 0.328669 -0.944445 4.1283e-8
vn 0.328669 -0.944445 4.1283e-8
vn 0.328669 -0.944445 4.1283e-8
vn 0.328669 -0.944445 4.1283e-8
vn 3.82137e-15 4.37114e-08 1
vn 3.82137e-15 4.37114e-08 1
vn 3.82137e-15 4.37114e-08 1
vn 3.82137e-15 4.37114e-08 1
vn -3.82137e-15 -4.37114e-08 -1
vn -3.82137e-15 -4.37114e-08 -1
vn -3.82137e-15 -4.37114e-08 -1
vn -3.82137e-15 -4.37114e-08 -1
vn -0.944445 -0.328669 1.43666e-8
vn -0.944445 -0.328669 1.43666e-8
vn -0.944445 -0.328669 1.43666e-8
vn -0.944445 -0.328669 1.43666e-8
vn 0.944445 0.328669 -1.43666e-8
vn 0.944445 0.328669 -1.43666e-8
vn 0.944445 0.328669 -1.43666e-8
vn 0.944445 0.328669 -1.43666e-8
f 1/1/1 3/2/2 2/3/3
f 1/1/1 4/4/4 3/2/2
f 5/5/5 7/6/6 6/7/7
f 5/5/5 8/8/8 7/6/6
f 9/9/9 11/10/10 10/11/11
f 9/9/9 12/12/12 11/10/10
f 13/13/13 15/14/14 14/15/15
f 13/13/13 16/16/16 15/14/14
f 17/17/17 19/18/18 18/19/19
f 17/17/17 20/20/20 19/18/18
f 21/21/21 23/22/22 22/23/23
f 21/21/21 24/24/24 23/22/22